<svg xmlns="http://www.w3.org/2000/svg" xmlns:xlink="http://www.w3.org/1999/xlink" width="500" zoomAndPan="magnify" viewBox="0 0 375 374.999991" height="500" preserveAspectRatio="xMidYMid meet" version="1.0"><defs><g/><clipPath id="3ba835dbeb"><path d="M 134 88.109375 L 241 88.109375 L 241 214.859375 L 134 214.859375 Z M 134 88.109375 " clip-rule="nonzero"/></clipPath></defs><path fill="#f9e9e8" d="M 185.585938 96.117188 C 194.753906 104.683594 203.097656 114.140625 210.464844 124.300781 C 211.90625 126.292969 213.371094 128.527344 213.203125 130.980469 C 213.003906 133.761719 210.777344 135.914062 208.699219 137.769531 C 202.199219 143.578125 195.675781 149.414062 188.363281 154.15625 C 181.050781 158.902344 172.871094 162.554688 164.214844 163.546875 C 157.734375 164.292969 150.976562 163.460938 145.023438 160.722656 C 142.347656 159.492188 138.875 158.382812 140.238281 155.09375 C 141.601562 151.804688 143.25 148.925781 144.929688 145.980469 C 151.726562 134.035156 160.398438 123.273438 169.578125 113.097656 C 174.789062 107.320312 180.1875 101.710938 185.585938 96.117188 Z M 185.585938 96.117188 " fill-opacity="1" fill-rule="nonzero"/><path fill="#fbd6d2" d="M 152.570312 148.617188 C 157.269531 147.679688 162.246094 147.769531 166.601562 145.777344 C 172.808594 142.925781 176.414062 136.511719 180.179688 130.816406 C 183.953125 125.113281 189.140625 119.300781 195.964844 118.984375 C 201.9375 118.707031 207.164062 122.75 211.582031 126.777344 C 215.207031 130.082031 218.753906 133.574219 221.285156 137.78125 C 223.8125 141.984375 225.269531 147.011719 224.40625 151.839844 C 223.40625 157.425781 219.519531 162.023438 215.441406 165.972656 C 197.984375 182.867188 174.136719 192.996094 149.855469 193.832031 C 147.441406 193.910156 144.890625 193.867188 142.832031 192.613281 C 140.136719 190.964844 138.980469 187.667969 138.351562 184.574219 C 135.847656 172.246094 137.53125 151.609375 152.570312 148.609375 Z M 152.570312 148.617188 " fill-opacity="1" fill-rule="nonzero"/><path fill="#f190b7" d="M 147.703125 180.410156 C 151.4375 178.34375 155.855469 178.042969 160.109375 177.699219 C 164.359375 177.359375 168.800781 176.875 172.359375 174.527344 C 181.550781 168.46875 180.636719 153.355469 189.679688 147.074219 C 194.386719 143.808594 200.53125 143.867188 206.242188 143.421875 C 211.957031 142.972656 218.335938 141.421875 221.207031 136.464844 C 226.53125 143.957031 231.914062 151.574219 234.996094 160.226562 C 238.078125 168.886719 238.601562 178.875 234.3125 187 C 229.042969 196.976562 217.859375 202.160156 207.183594 205.796875 C 195.027344 209.933594 181.929688 212.984375 169.402344 210.15625 C 163.144531 208.738281 157.242188 205.816406 152.261719 201.785156 C 149.757812 199.757812 147.542969 197.453125 145.535156 194.9375 C 144.023438 193.054688 142.015625 191.414062 142.066406 188.847656 C 142.140625 185.316406 144.71875 182.070312 147.703125 180.410156 Z M 147.703125 180.410156 " fill-opacity="1" fill-rule="nonzero"/><path fill="#cb72c1" d="M 173.019531 200.972656 C 176.234375 199.339844 179.960938 199.175781 183.5625 198.976562 C 187.160156 198.777344 190.902344 198.46875 193.996094 196.617188 C 202.316406 191.628906 202.085938 178.144531 210.453125 173.222656 C 213.210938 171.601562 216.507812 171.203125 219.695312 170.949219 C 222.882812 170.699219 226.160156 170.535156 229.113281 169.292969 C 232.066406 168.050781 234.691406 165.46875 234.96875 162.28125 C 239.046875 169.550781 238.867188 178.796875 235.386719 186.371094 C 231.90625 193.941406 225.394531 199.886719 217.949219 203.632812 C 210.507812 207.382812 202.15625 209.070312 193.839844 209.585938 C 186.882812 210.027344 179.871094 209.714844 172.921875 209.195312 C 171.0625 209.058594 168.054688 209.195312 168.125 206.710938 C 168.1875 204.351562 171.140625 201.921875 173.019531 200.972656 Z M 173.019531 200.972656 " fill-opacity="1" fill-rule="nonzero"/><g clip-path="url(#3ba835dbeb)"><path fill="#471c57" d="M 226.675781 137.160156 C 221.03125 129.976562 214.8125 122.355469 207.554688 115.261719 C 200.589844 108.453125 193.050781 100.167969 189.867188 90.332031 C 189.503906 89.207031 188.539062 88.367188 187.367188 88.164062 C 186.199219 87.953125 185.011719 88.414062 184.277344 89.347656 C 181.652344 92.722656 179.023438 96.199219 176.484375 99.566406 C 171.4375 106.25 166.210938 113.167969 160.75 119.59375 C 153.199219 128.496094 145.972656 137.332031 140.617188 147.609375 C 135.996094 156.492188 133.792969 165.15625 134.066406 173.339844 C 134.085938 174.027344 134.128906 174.714844 134.191406 175.40625 C 135.136719 186.316406 140.601562 196.328125 149.570312 203.609375 C 153.597656 206.875 158.183594 209.480469 163.1875 211.347656 C 169.847656 213.828125 177.3125 215.074219 185.527344 215.074219 C 192.328125 215.074219 199.636719 214.222656 207.421875 212.523438 C 224.105469 208.875 235.71875 199.726562 239.273438 187.417969 C 244.601562 168.976562 236.257812 149.363281 226.667969 137.160156 Z M 233.113281 185.632812 C 229.023438 199.789062 212.828125 204.769531 206.050781 206.246094 C 190.085938 209.738281 176.421875 209.425781 165.433594 205.332031 C 161.082031 203.703125 157.101562 201.445312 153.613281 198.617188 C 146.007812 192.445312 141.378906 184.007812 140.582031 174.84375 C 140.53125 174.273438 140.496094 173.695312 140.480469 173.121094 C 140.238281 166.050781 142.207031 158.460938 146.320312 150.5625 C 151.363281 140.875 158.34375 132.34375 165.648438 123.734375 C 171.226562 117.167969 176.507812 110.175781 181.609375 103.421875 C 183.027344 101.542969 184.46875 99.628906 185.925781 97.71875 C 190.082031 106.433594 196.796875 113.71875 203.0625 119.839844 C 210.050781 126.675781 216.109375 134.105469 221.621094 141.117188 C 230.226562 152.070312 237.761719 169.511719 233.109375 185.625 Z M 233.113281 185.632812 " fill-opacity="1" fill-rule="nonzero"/></g><path fill="#471c57" d="M 163.710938 154.652344 C 163.710938 155.074219 163.679688 155.492188 163.609375 155.90625 C 163.542969 156.320312 163.441406 156.71875 163.304688 157.109375 C 163.171875 157.5 163.007812 157.867188 162.8125 158.21875 C 162.617188 158.570312 162.394531 158.894531 162.144531 159.191406 C 161.898438 159.488281 161.628906 159.757812 161.335938 159.988281 C 161.042969 160.222656 160.734375 160.421875 160.410156 160.582031 C 160.085938 160.746094 159.753906 160.867188 159.40625 160.949219 C 159.0625 161.03125 158.714844 161.070312 158.363281 161.070312 C 158.011719 161.070312 157.664062 161.03125 157.320312 160.949219 C 156.976562 160.867188 156.640625 160.746094 156.316406 160.582031 C 155.992188 160.421875 155.683594 160.222656 155.394531 159.988281 C 155.101562 159.757812 154.832031 159.488281 154.582031 159.191406 C 154.335938 158.894531 154.113281 158.570312 153.917969 158.21875 C 153.722656 157.867188 153.558594 157.5 153.421875 157.109375 C 153.289062 156.71875 153.1875 156.320312 153.117188 155.90625 C 153.050781 155.492188 153.015625 155.074219 153.015625 154.652344 C 153.015625 154.230469 153.050781 153.816406 153.117188 153.402344 C 153.1875 152.988281 153.289062 152.585938 153.421875 152.199219 C 153.558594 151.808594 153.722656 151.4375 153.917969 151.089844 C 154.113281 150.738281 154.335938 150.414062 154.582031 150.117188 C 154.832031 149.816406 155.101562 149.550781 155.394531 149.316406 C 155.683594 149.082031 155.992188 148.886719 156.316406 148.722656 C 156.640625 148.5625 156.976562 148.441406 157.320312 148.359375 C 157.664062 148.277344 158.011719 148.234375 158.363281 148.234375 C 158.714844 148.234375 159.0625 148.277344 159.40625 148.359375 C 159.753906 148.441406 160.085938 148.5625 160.410156 148.722656 C 160.734375 148.886719 161.042969 149.082031 161.335938 149.316406 C 161.628906 149.550781 161.898438 149.816406 162.144531 150.117188 C 162.394531 150.414062 162.617188 150.738281 162.8125 151.089844 C 163.007812 151.4375 163.171875 151.808594 163.304688 152.199219 C 163.441406 152.585938 163.542969 152.988281 163.609375 153.402344 C 163.679688 153.816406 163.710938 154.230469 163.710938 154.652344 Z M 163.710938 154.652344 " fill-opacity="1" fill-rule="nonzero"/><path fill="#471c57" d="M 219.871094 154.652344 C 219.871094 155.074219 219.835938 155.492188 219.769531 155.90625 C 219.699219 156.320312 219.597656 156.71875 219.464844 157.109375 C 219.328125 157.5 219.164062 157.867188 218.96875 158.21875 C 218.773438 158.570312 218.554688 158.894531 218.304688 159.191406 C 218.054688 159.488281 217.785156 159.757812 217.496094 159.988281 C 217.203125 160.222656 216.894531 160.421875 216.570312 160.582031 C 216.246094 160.746094 215.910156 160.867188 215.566406 160.949219 C 215.222656 161.03125 214.875 161.070312 214.523438 161.070312 C 214.171875 161.070312 213.824219 161.03125 213.480469 160.949219 C 213.136719 160.867188 212.800781 160.746094 212.476562 160.582031 C 212.152344 160.421875 211.84375 160.222656 211.550781 159.988281 C 211.257812 159.757812 210.988281 159.488281 210.742188 159.191406 C 210.492188 158.894531 210.269531 158.570312 210.074219 158.21875 C 209.878906 157.867188 209.714844 157.5 209.582031 157.109375 C 209.445312 156.71875 209.34375 156.320312 209.277344 155.90625 C 209.207031 155.492188 209.175781 155.074219 209.175781 154.652344 C 209.175781 154.230469 209.207031 153.816406 209.277344 153.402344 C 209.34375 152.988281 209.445312 152.585938 209.582031 152.199219 C 209.714844 151.808594 209.878906 151.4375 210.074219 151.089844 C 210.269531 150.738281 210.492188 150.414062 210.742188 150.117188 C 210.988281 149.816406 211.257812 149.550781 211.550781 149.316406 C 211.84375 149.082031 212.152344 148.886719 212.476562 148.722656 C 212.800781 148.5625 213.136719 148.441406 213.480469 148.359375 C 213.824219 148.277344 214.171875 148.234375 214.523438 148.234375 C 214.875 148.234375 215.222656 148.277344 215.566406 148.359375 C 215.910156 148.441406 216.246094 148.5625 216.570312 148.722656 C 216.894531 148.886719 217.203125 149.082031 217.496094 149.316406 C 217.785156 149.550781 218.054688 149.816406 218.304688 150.117188 C 218.554688 150.414062 218.773438 150.738281 218.96875 151.089844 C 219.164062 151.4375 219.328125 151.808594 219.464844 152.199219 C 219.597656 152.585938 219.699219 152.988281 219.769531 153.402344 C 219.835938 153.816406 219.871094 154.230469 219.871094 154.652344 Z M 219.871094 154.652344 " fill-opacity="1" fill-rule="nonzero"/><path fill="#471c57" d="M 197.675781 163.3125 C 193.4375 163.367188 189.203125 163.46875 184.96875 163.480469 C 182.171875 163.484375 179.472656 162.902344 176.695312 162.757812 C 169.742188 162.398438 173.164062 170.21875 176.734375 172.84375 C 179.269531 174.710938 182.507812 175.46875 185.65625 175.382812 C 191.039062 175.246094 196.304688 172.652344 199.691406 168.46875 C 200.746094 167.167969 201.574219 165.109375 200.347656 163.964844 C 199.664062 163.316406 198.617188 163.296875 197.675781 163.308594 Z M 197.675781 163.3125 " fill-opacity="1" fill-rule="nonzero"/><g fill="#471c57" fill-opacity="1"><g transform="translate(44.043473, 257.491286)"><g><path d="M 25.1875 -25.21875 C 25.425781 -25.21875 25.613281 -25.144531 25.75 -25 C 25.882812 -24.863281 25.953125 -24.679688 25.953125 -24.453125 L 25.953125 -0.296875 C 25.953125 -0.0546875 25.878906 0.128906 25.734375 0.265625 C 25.597656 0.398438 25.414062 0.46875 25.1875 0.46875 L 24.703125 0.46875 C 24.390625 0.46875 24.128906 0.363281 23.921875 0.15625 C 23.722656 -0.0390625 23.484375 -0.242188 23.203125 -0.453125 L 9.78125 -10.84375 L 9.78125 -0.765625 C 9.78125 -0.523438 9.707031 -0.335938 9.5625 -0.203125 C 9.425781 -0.0664062 9.242188 0 9.015625 0 L 2.921875 0 C 2.691406 0 2.503906 -0.0664062 2.359375 -0.203125 C 2.222656 -0.335938 2.15625 -0.523438 2.15625 -0.765625 L 2.15625 -24.953125 C 2.15625 -25.203125 2.222656 -25.390625 2.359375 -25.515625 C 2.503906 -25.648438 2.691406 -25.71875 2.921875 -25.71875 L 3.28125 -25.71875 C 3.570312 -25.71875 3.800781 -25.644531 3.96875 -25.5 C 4.132812 -25.363281 4.34375 -25.191406 4.59375 -24.984375 L 18.34375 -13.78125 L 18.34375 -24.453125 C 18.34375 -24.960938 18.597656 -25.21875 19.109375 -25.21875 Z M 25.1875 -25.21875 "/></g></g></g><g fill="#471c57" fill-opacity="1"><g transform="translate(86.222742, 257.491286)"><g><path d="M 25.6875 -1.140625 C 25.832031 -0.828125 25.835938 -0.554688 25.703125 -0.328125 C 25.578125 -0.0976562 25.320312 0.015625 24.9375 0.015625 L 18.875 0.015625 C 18.570312 0.015625 18.300781 -0.0703125 18.0625 -0.25 C 17.832031 -0.4375 17.664062 -0.671875 17.5625 -0.953125 L 16.984375 -2.671875 L 9.296875 -2.671875 L 8.71875 -0.96875 C 8.625 -0.707031 8.460938 -0.476562 8.234375 -0.28125 C 8.003906 -0.09375 7.722656 0 7.390625 0 L 1.34375 0 C 0.976562 0 0.722656 -0.101562 0.578125 -0.3125 C 0.429688 -0.53125 0.429688 -0.8125 0.578125 -1.15625 L 10.890625 -24.703125 C 11.035156 -25.023438 11.234375 -25.269531 11.484375 -25.4375 C 11.742188 -25.601562 12.007812 -25.6875 12.28125 -25.6875 L 14.078125 -25.6875 C 14.390625 -25.6875 14.660156 -25.59375 14.890625 -25.40625 C 15.128906 -25.21875 15.304688 -24.984375 15.421875 -24.703125 Z M 11.1875 -8.25 L 15.09375 -8.25 L 13.125 -14 Z M 11.1875 -8.25 "/></g></g></g><g fill="#471c57" fill-opacity="1"><g transform="translate(126.559444, 257.491286)"><g><path d="M 26.515625 -1.28125 C 26.722656 -0.925781 26.789062 -0.625 26.71875 -0.375 C 26.644531 -0.125 26.425781 0 26.0625 0 L 19.203125 0 C 18.785156 0 18.453125 -0.144531 18.203125 -0.4375 L 12.171875 -11.109375 L 9.78125 -8.578125 L 9.78125 -0.765625 C 9.78125 -0.523438 9.707031 -0.335938 9.5625 -0.203125 C 9.425781 -0.0664062 9.242188 0 9.015625 0 L 2.921875 0 C 2.691406 0 2.503906 -0.0664062 2.359375 -0.203125 C 2.222656 -0.335938 2.15625 -0.523438 2.15625 -0.765625 L 2.15625 -24.453125 C 2.15625 -24.710938 2.222656 -24.90625 2.359375 -25.03125 C 2.503906 -25.15625 2.691406 -25.21875 2.921875 -25.21875 L 9.015625 -25.21875 C 9.242188 -25.21875 9.425781 -25.15625 9.5625 -25.03125 C 9.707031 -24.90625 9.78125 -24.710938 9.78125 -24.453125 L 9.78125 -18.59375 L 15.296875 -24.515625 C 15.546875 -24.804688 15.773438 -24.992188 15.984375 -25.078125 C 16.203125 -25.171875 16.488281 -25.21875 16.84375 -25.21875 L 23.828125 -25.21875 C 24.078125 -25.21875 24.265625 -25.144531 24.390625 -25 C 24.523438 -24.863281 24.582031 -24.695312 24.5625 -24.5 C 24.539062 -24.300781 24.4375 -24.101562 24.25 -23.90625 L 17.53125 -16.78125 Z M 26.515625 -1.28125 "/></g></g></g><g fill="#471c57" fill-opacity="1"><g transform="translate(167.244744, 257.491286)"><g><path d="M 9.765625 -24.453125 L 9.765625 -0.765625 C 9.765625 -0.253906 9.507812 0 9 0 L 2.921875 0 C 2.410156 0 2.15625 -0.253906 2.15625 -0.765625 L 2.15625 -24.453125 C 2.15625 -24.960938 2.410156 -25.21875 2.921875 -25.21875 L 9 -25.21875 C 9.507812 -25.21875 9.765625 -24.960938 9.765625 -24.453125 Z M 9.765625 -24.453125 "/></g></g></g><g fill="#471c57" fill-opacity="1"><g transform="translate(193.239344, 257.491286)"><g><path d="M 20.125 -7.09375 L 23.3125 -1.21875 C 23.5 -0.875 23.523438 -0.582031 23.390625 -0.34375 C 23.253906 -0.113281 22.992188 0 22.609375 0 L 16.421875 0 C 16.191406 0 15.957031 -0.0820312 15.71875 -0.25 C 15.488281 -0.425781 15.3125 -0.640625 15.1875 -0.890625 L 13.1875 -4.921875 L 9.78125 -4.921875 L 9.78125 -1.046875 C 9.78125 -0.734375 9.671875 -0.476562 9.453125 -0.28125 C 9.234375 -0.09375 8.96875 0 8.65625 0 L 3.21875 0 C 2.90625 0 2.648438 -0.09375 2.453125 -0.28125 C 2.253906 -0.476562 2.15625 -0.734375 2.15625 -1.046875 L 2.15625 -24.15625 C 2.15625 -24.46875 2.253906 -24.722656 2.453125 -24.921875 C 2.648438 -25.117188 2.90625 -25.21875 3.21875 -25.21875 L 4.625 -25.21875 C 5.175781 -25.21875 5.71875 -25.21875 6.25 -25.21875 C 6.789062 -25.21875 7.273438 -25.21875 7.703125 -25.21875 C 8.128906 -25.21875 8.457031 -25.21875 8.6875 -25.21875 L 13.1875 -25.21875 C 14.738281 -25.21875 16.171875 -24.960938 17.484375 -24.453125 C 18.804688 -23.953125 19.953125 -23.242188 20.921875 -22.328125 C 21.890625 -21.410156 22.640625 -20.328125 23.171875 -19.078125 C 23.703125 -17.828125 23.96875 -16.453125 23.96875 -14.953125 C 23.96875 -13.304688 23.628906 -11.804688 22.953125 -10.453125 C 22.273438 -9.109375 21.332031 -7.988281 20.125 -7.09375 Z M 9.78125 -18.578125 L 9.78125 -11.21875 L 12.671875 -11.21875 C 13.390625 -11.21875 14.023438 -11.375 14.578125 -11.6875 C 15.128906 -12 15.566406 -12.4375 15.890625 -13 C 16.210938 -13.570312 16.375 -14.234375 16.375 -14.984375 C 16.375 -15.679688 16.210938 -16.296875 15.890625 -16.828125 C 15.566406 -17.367188 15.128906 -17.796875 14.578125 -18.109375 C 14.023438 -18.421875 13.390625 -18.578125 12.671875 -18.578125 Z M 9.78125 -18.578125 "/></g></g></g><g fill="#471c57" fill-opacity="1"><g transform="translate(232.862266, 257.491286)"><g><path d="M 9.765625 -24.453125 L 9.765625 -0.765625 C 9.765625 -0.253906 9.507812 0 9 0 L 2.921875 0 C 2.410156 0 2.15625 -0.253906 2.15625 -0.765625 L 2.15625 -24.453125 C 2.15625 -24.960938 2.410156 -25.21875 2.921875 -25.21875 L 9 -25.21875 C 9.507812 -25.21875 9.765625 -24.960938 9.765625 -24.453125 Z M 9.765625 -24.453125 "/></g></g></g><g fill="#471c57" fill-opacity="1"><g transform="translate(258.856867, 257.491286)"><g><path d="M 9.453125 -24.40625 L 9.453125 -10.703125 C 9.453125 -9.566406 9.742188 -8.65625 10.328125 -7.96875 C 10.910156 -7.289062 11.742188 -6.953125 12.828125 -6.953125 C 13.867188 -6.953125 14.691406 -7.289062 15.296875 -7.96875 C 15.910156 -8.65625 16.21875 -9.566406 16.21875 -10.703125 L 16.21875 -24.40625 C 16.21875 -24.65625 16.289062 -24.851562 16.4375 -25 C 16.59375 -25.144531 16.789062 -25.21875 17.03125 -25.21875 L 22.9375 -25.21875 C 23.207031 -25.21875 23.421875 -25.144531 23.578125 -25 C 23.742188 -24.851562 23.828125 -24.65625 23.828125 -24.40625 L 23.828125 -10.796875 C 23.828125 -9.066406 23.570312 -7.507812 23.0625 -6.125 C 22.550781 -4.738281 21.8125 -3.554688 20.84375 -2.578125 C 19.882812 -1.597656 18.726562 -0.84375 17.375 -0.3125 C 16.03125 0.207031 14.515625 0.46875 12.828125 0.46875 C 11.128906 0.46875 9.597656 0.207031 8.234375 -0.3125 C 6.878906 -0.84375 5.726562 -1.597656 4.78125 -2.578125 C 3.832031 -3.554688 3.101562 -4.738281 2.59375 -6.125 C 2.09375 -7.507812 1.84375 -9.0625 1.84375 -10.78125 L 1.84375 -24.40625 C 1.84375 -24.65625 1.90625 -24.851562 2.03125 -25 C 2.164062 -25.144531 2.34375 -25.21875 2.5625 -25.21875 L 8.6875 -25.21875 C 8.914062 -25.21875 9.097656 -25.144531 9.234375 -25 C 9.378906 -24.851562 9.453125 -24.65625 9.453125 -24.40625 Z M 9.453125 -24.40625 "/></g></g></g><g fill="#471c57" fill-opacity="1"><g transform="translate(298.595992, 257.491286)"><g><path d="M 30.828125 -1.078125 C 30.867188 -0.703125 30.785156 -0.425781 30.578125 -0.25 C 30.367188 -0.0820312 30.085938 0 29.734375 0 L 24.203125 0 C 23.878906 0 23.628906 -0.078125 23.453125 -0.234375 C 23.273438 -0.398438 23.171875 -0.660156 23.140625 -1.015625 L 22.453125 -8.03125 L 17.984375 -0.5625 C 17.773438 -0.195312 17.554688 0.0625 17.328125 0.21875 C 17.097656 0.382812 16.820312 0.46875 16.5 0.46875 L 15.84375 0.46875 C 15.53125 0.46875 15.257812 0.382812 15.03125 0.21875 C 14.800781 0.0625 14.578125 -0.195312 14.359375 -0.5625 L 9.890625 -8.03125 L 9.203125 -1.015625 C 9.160156 -0.660156 9.050781 -0.398438 8.875 -0.234375 C 8.695312 -0.078125 8.453125 0 8.140625 0 L 2.609375 0 C 2.265625 0 1.984375 -0.0820312 1.765625 -0.25 C 1.546875 -0.425781 1.460938 -0.703125 1.515625 -1.078125 L 4.140625 -24.703125 C 4.222656 -25.390625 4.578125 -25.734375 5.203125 -25.734375 L 6.40625 -25.734375 C 6.757812 -25.734375 7.007812 -25.632812 7.15625 -25.4375 C 7.300781 -25.25 7.457031 -25.007812 7.625 -24.71875 L 16.171875 -10.4375 L 24.71875 -24.71875 C 24.882812 -25.007812 25.039062 -25.25 25.1875 -25.4375 C 25.34375 -25.632812 25.59375 -25.734375 25.9375 -25.734375 L 27.140625 -25.734375 C 27.765625 -25.734375 28.117188 -25.390625 28.203125 -24.703125 Z M 30.828125 -1.078125 "/></g></g></g><g fill="#471c57" fill-opacity="1"><g transform="translate(38.855887, 282.841299)"><g><path d="M 8.71875 -8.921875 C 8.820312 -8.921875 8.875 -8.867188 8.875 -8.765625 L 8.875 -0.125 C 8.875 -0.0625 8.859375 -0.015625 8.828125 0.015625 C 8.796875 0.0546875 8.753906 0.078125 8.703125 0.078125 C 8.648438 0.078125 8.601562 0.0625 8.5625 0.03125 C 8.53125 0.0078125 8.488281 -0.0234375 8.4375 -0.078125 L 2.234375 -6.828125 L 2.234375 -0.140625 C 2.234375 -0.0351562 2.1875 0.015625 2.09375 0.015625 L 1.40625 0.015625 C 1.300781 0.015625 1.25 -0.0351562 1.25 -0.140625 L 1.25 -8.796875 C 1.25 -8.847656 1.265625 -8.890625 1.296875 -8.921875 C 1.328125 -8.960938 1.367188 -8.984375 1.421875 -8.984375 L 1.4375 -8.984375 C 1.476562 -8.984375 1.515625 -8.96875 1.546875 -8.9375 C 1.585938 -8.90625 1.628906 -8.863281 1.671875 -8.8125 L 7.890625 -2.0625 L 7.890625 -8.765625 C 7.890625 -8.867188 7.941406 -8.921875 8.046875 -8.921875 Z M 8.71875 -8.921875 "/></g></g></g><g fill="#471c57" fill-opacity="1"><g transform="translate(51.890745, 282.841299)"><g><path d="M 0.625 -4.4375 C 0.625 -4.945312 0.695312 -5.429688 0.84375 -5.890625 C 1 -6.359375 1.21875 -6.78125 1.5 -7.15625 C 1.78125 -7.539062 2.109375 -7.867188 2.484375 -8.140625 C 2.867188 -8.421875 3.289062 -8.632812 3.75 -8.78125 C 4.21875 -8.9375 4.707031 -9.015625 5.21875 -9.015625 C 5.726562 -9.015625 6.210938 -8.9375 6.671875 -8.78125 C 7.140625 -8.632812 7.5625 -8.421875 7.9375 -8.140625 C 8.320312 -7.867188 8.65625 -7.539062 8.9375 -7.15625 C 9.21875 -6.78125 9.429688 -6.359375 9.578125 -5.890625 C 9.734375 -5.429688 9.8125 -4.945312 9.8125 -4.4375 C 9.8125 -3.914062 9.734375 -3.425781 9.578125 -2.96875 C 9.429688 -2.507812 9.21875 -2.09375 8.9375 -1.71875 C 8.65625 -1.34375 8.320312 -1.015625 7.9375 -0.734375 C 7.5625 -0.460938 7.140625 -0.25 6.671875 -0.09375 C 6.210938 0.0507812 5.726562 0.125 5.21875 0.125 C 4.707031 0.125 4.21875 0.0507812 3.75 -0.09375 C 3.289062 -0.25 2.867188 -0.460938 2.484375 -0.734375 C 2.109375 -1.015625 1.78125 -1.34375 1.5 -1.71875 C 1.21875 -2.09375 1 -2.507812 0.84375 -2.96875 C 0.695312 -3.425781 0.625 -3.914062 0.625 -4.4375 Z M 1.609375 -4.4375 C 1.609375 -4.03125 1.664062 -3.644531 1.78125 -3.28125 C 1.90625 -2.925781 2.078125 -2.597656 2.296875 -2.296875 C 2.515625 -2.003906 2.769531 -1.75 3.0625 -1.53125 C 3.363281 -1.3125 3.695312 -1.144531 4.0625 -1.03125 C 4.425781 -0.914062 4.8125 -0.859375 5.21875 -0.859375 C 5.625 -0.859375 6.007812 -0.914062 6.375 -1.03125 C 6.738281 -1.144531 7.066406 -1.3125 7.359375 -1.53125 C 7.660156 -1.75 7.921875 -2.003906 8.140625 -2.296875 C 8.359375 -2.597656 8.523438 -2.925781 8.640625 -3.28125 C 8.765625 -3.644531 8.828125 -4.03125 8.828125 -4.4375 C 8.828125 -4.84375 8.765625 -5.222656 8.640625 -5.578125 C 8.523438 -5.941406 8.359375 -6.273438 8.140625 -6.578125 C 7.921875 -6.878906 7.660156 -7.140625 7.359375 -7.359375 C 7.066406 -7.578125 6.738281 -7.742188 6.375 -7.859375 C 6.007812 -7.984375 5.625 -8.046875 5.21875 -8.046875 C 4.8125 -8.046875 4.425781 -7.984375 4.0625 -7.859375 C 3.695312 -7.742188 3.363281 -7.578125 3.0625 -7.359375 C 2.769531 -7.140625 2.515625 -6.878906 2.296875 -6.578125 C 2.078125 -6.273438 1.90625 -5.941406 1.78125 -5.578125 C 1.664062 -5.222656 1.609375 -4.84375 1.609375 -4.4375 Z M 1.609375 -4.4375 "/></g></g></g><g fill="#471c57" fill-opacity="1"><g transform="translate(65.230291, 282.841299)"><g><path d="M 10.78125 -0.1875 C 10.789062 -0.0507812 10.726562 0.015625 10.59375 0.015625 L 9.984375 0.015625 C 9.859375 0.015625 9.789062 -0.046875 9.78125 -0.171875 L 9.234375 -6.265625 L 6 -0.0625 C 5.96875 0 5.9375 0.0390625 5.90625 0.0625 C 5.882812 0.09375 5.847656 0.109375 5.796875 0.109375 C 5.753906 0.109375 5.71875 0.09375 5.6875 0.0625 C 5.65625 0.0390625 5.625 0 5.59375 -0.0625 L 2.359375 -6.265625 L 1.8125 -0.171875 C 1.800781 -0.046875 1.738281 0.015625 1.625 0.015625 L 1 0.015625 C 0.863281 0.015625 0.804688 -0.0507812 0.828125 -0.1875 L 1.625 -8.859375 C 1.632812 -8.960938 1.6875 -9.015625 1.78125 -9.015625 L 1.8125 -9.015625 C 1.851562 -9.015625 1.882812 -9.003906 1.90625 -8.984375 C 1.925781 -8.960938 1.953125 -8.929688 1.984375 -8.890625 L 5.796875 -1.59375 L 9.625 -8.890625 C 9.644531 -8.929688 9.664062 -8.960938 9.6875 -8.984375 C 9.707031 -9.003906 9.742188 -9.015625 9.796875 -9.015625 L 9.8125 -9.015625 C 9.914062 -9.015625 9.972656 -8.960938 9.984375 -8.859375 Z M 10.78125 -0.1875 "/></g></g></g><g fill="#471c57" fill-opacity="1"><g transform="translate(79.729991, 282.841299)"><g><path d="M 6.109375 -5.046875 C 6.460938 -4.972656 6.78125 -4.820312 7.0625 -4.59375 C 7.351562 -4.375 7.582031 -4.097656 7.75 -3.765625 C 7.925781 -3.441406 8.015625 -3.082031 8.015625 -2.6875 C 8.015625 -2.3125 7.9375 -1.960938 7.78125 -1.640625 C 7.632812 -1.316406 7.429688 -1.03125 7.171875 -0.78125 C 6.910156 -0.53125 6.601562 -0.335938 6.25 -0.203125 C 5.894531 -0.0664062 5.515625 0 5.109375 0 L 1.40625 0 C 1.3125 0 1.265625 -0.0507812 1.265625 -0.15625 L 1.265625 -8.75 C 1.265625 -8.851562 1.3125 -8.90625 1.40625 -8.90625 L 4.859375 -8.90625 C 5.191406 -8.90625 5.503906 -8.847656 5.796875 -8.734375 C 6.097656 -8.628906 6.359375 -8.476562 6.578125 -8.28125 C 6.804688 -8.09375 6.984375 -7.867188 7.109375 -7.609375 C 7.234375 -7.359375 7.296875 -7.085938 7.296875 -6.796875 C 7.296875 -6.535156 7.242188 -6.289062 7.140625 -6.0625 C 7.035156 -5.832031 6.894531 -5.628906 6.71875 -5.453125 C 6.539062 -5.273438 6.335938 -5.140625 6.109375 -5.046875 Z M 6.359375 -6.65625 C 6.359375 -6.90625 6.289062 -7.132812 6.15625 -7.34375 C 6.019531 -7.550781 5.835938 -7.710938 5.609375 -7.828125 C 5.390625 -7.953125 5.140625 -8.015625 4.859375 -8.015625 L 2.234375 -8.015625 L 2.234375 -5.34375 L 4.859375 -5.34375 C 5.140625 -5.34375 5.390625 -5.394531 5.609375 -5.5 C 5.835938 -5.613281 6.019531 -5.769531 6.15625 -5.96875 C 6.289062 -6.175781 6.359375 -6.40625 6.359375 -6.65625 Z M 5.09375 -0.890625 C 5.363281 -0.890625 5.613281 -0.9375 5.84375 -1.03125 C 6.082031 -1.125 6.289062 -1.253906 6.46875 -1.421875 C 6.644531 -1.597656 6.78125 -1.796875 6.875 -2.015625 C 6.976562 -2.242188 7.03125 -2.488281 7.03125 -2.75 C 7.03125 -3.09375 6.941406 -3.398438 6.765625 -3.671875 C 6.597656 -3.941406 6.367188 -4.148438 6.078125 -4.296875 C 5.785156 -4.453125 5.457031 -4.53125 5.09375 -4.53125 L 2.234375 -4.53125 L 2.234375 -0.890625 Z M 5.09375 -0.890625 "/></g></g></g><g fill="#471c57" fill-opacity="1"><g transform="translate(91.27071, 282.841299)"><g><path d="M 6.359375 -2.734375 L 7.59375 -0.21875 C 7.625 -0.15625 7.628906 -0.0976562 7.609375 -0.046875 C 7.585938 -0.00390625 7.546875 0.015625 7.484375 0.015625 L 6.765625 0.015625 C 6.722656 0.015625 6.679688 0 6.640625 -0.03125 C 6.609375 -0.0625 6.582031 -0.0976562 6.5625 -0.140625 L 5.484375 -2.390625 C 5.171875 -2.304688 4.84375 -2.265625 4.5 -2.265625 L 2.234375 -2.265625 L 2.234375 -0.171875 C 2.234375 -0.046875 2.175781 0.015625 2.0625 0.015625 L 1.453125 0.015625 C 1.328125 0.015625 1.265625 -0.046875 1.265625 -0.171875 L 1.265625 -8.71875 C 1.265625 -8.78125 1.28125 -8.828125 1.3125 -8.859375 C 1.34375 -8.890625 1.390625 -8.90625 1.453125 -8.90625 L 1.609375 -8.90625 C 1.703125 -8.90625 1.796875 -8.90625 1.890625 -8.90625 C 1.992188 -8.90625 2.0625 -8.90625 2.09375 -8.90625 L 4.5 -8.90625 C 5 -8.90625 5.457031 -8.820312 5.875 -8.65625 C 6.300781 -8.488281 6.671875 -8.253906 6.984375 -7.953125 C 7.296875 -7.660156 7.535156 -7.304688 7.703125 -6.890625 C 7.867188 -6.484375 7.953125 -6.039062 7.953125 -5.5625 C 7.953125 -5.144531 7.882812 -4.753906 7.75 -4.390625 C 7.625 -4.035156 7.441406 -3.71875 7.203125 -3.4375 C 6.960938 -3.15625 6.679688 -2.921875 6.359375 -2.734375 Z M 4.4375 -3.09375 C 4.8125 -3.09375 5.148438 -3.15625 5.453125 -3.28125 C 5.765625 -3.40625 6.035156 -3.578125 6.265625 -3.796875 C 6.492188 -4.015625 6.671875 -4.273438 6.796875 -4.578125 C 6.921875 -4.878906 6.984375 -5.207031 6.984375 -5.5625 C 6.984375 -5.925781 6.914062 -6.253906 6.78125 -6.546875 C 6.65625 -6.847656 6.476562 -7.109375 6.25 -7.328125 C 6.019531 -7.554688 5.75 -7.726562 5.4375 -7.84375 C 5.132812 -7.96875 4.800781 -8.03125 4.4375 -8.03125 L 2.234375 -8.03125 L 2.234375 -3.09375 Z M 4.4375 -3.09375 "/></g></g></g><g fill="#471c57" fill-opacity="1"><g transform="translate(102.987211, 282.841299)"><g><path d="M 7.546875 -0.9375 C 7.628906 -0.9375 7.691406 -0.914062 7.734375 -0.875 C 7.785156 -0.84375 7.8125 -0.789062 7.8125 -0.71875 L 7.8125 -0.1875 C 7.8125 -0.125 7.789062 -0.078125 7.75 -0.046875 C 7.707031 -0.015625 7.65625 0 7.59375 0 L 1.453125 0 C 1.328125 0 1.265625 -0.0625 1.265625 -0.1875 L 1.265625 -8.71875 C 1.265625 -8.84375 1.328125 -8.90625 1.453125 -8.90625 L 7.46875 -8.90625 C 7.601562 -8.90625 7.671875 -8.84375 7.671875 -8.71875 L 7.671875 -8.15625 C 7.671875 -8.03125 7.601562 -7.96875 7.46875 -7.96875 L 2.234375 -7.96875 L 2.234375 -4.296875 L 6.5 -4.296875 C 6.65625 -4.296875 6.734375 -4.226562 6.734375 -4.09375 L 6.734375 -3.5625 C 6.734375 -3.4375 6.65625 -3.375 6.5 -3.375 L 2.234375 -3.375 L 2.234375 -0.9375 Z M 7.546875 -0.9375 "/></g></g></g><g fill="#471c57" fill-opacity="1"><g transform="translate(114.299414, 282.841299)"><g/></g></g><g fill="#471c57" fill-opacity="1"><g transform="translate(120.701462, 282.841299)"><g><path d="M 3.640625 -8.90625 C 4.203125 -8.90625 4.71875 -8.816406 5.1875 -8.640625 C 5.65625 -8.472656 6.0625 -8.234375 6.40625 -7.921875 C 6.75 -7.609375 7.015625 -7.238281 7.203125 -6.8125 C 7.390625 -6.394531 7.484375 -5.9375 7.484375 -5.4375 C 7.484375 -4.9375 7.390625 -4.472656 7.203125 -4.046875 C 7.015625 -3.628906 6.75 -3.269531 6.40625 -2.96875 C 6.0625 -2.664062 5.65625 -2.429688 5.1875 -2.265625 C 4.71875 -2.097656 4.203125 -2.015625 3.640625 -2.015625 L 2.234375 -2.015625 L 2.234375 -0.171875 C 2.234375 -0.117188 2.21875 -0.0703125 2.1875 -0.03125 C 2.15625 0 2.113281 0.015625 2.0625 0.015625 L 1.453125 0.015625 C 1.390625 0.015625 1.34375 0 1.3125 -0.03125 C 1.28125 -0.0703125 1.265625 -0.117188 1.265625 -0.171875 L 1.265625 -8.71875 C 1.265625 -8.769531 1.28125 -8.8125 1.3125 -8.84375 C 1.34375 -8.882812 1.390625 -8.90625 1.453125 -8.90625 L 1.765625 -8.90625 C 1.835938 -8.90625 1.898438 -8.90625 1.953125 -8.90625 C 2.015625 -8.90625 2.0625 -8.90625 2.09375 -8.90625 Z M 3.578125 -2.890625 C 4.003906 -2.890625 4.394531 -2.945312 4.75 -3.0625 C 5.113281 -3.1875 5.425781 -3.363281 5.6875 -3.59375 C 5.945312 -3.820312 6.148438 -4.09375 6.296875 -4.40625 C 6.441406 -4.71875 6.515625 -5.0625 6.515625 -5.4375 C 6.515625 -5.8125 6.441406 -6.15625 6.296875 -6.46875 C 6.148438 -6.789062 5.945312 -7.066406 5.6875 -7.296875 C 5.425781 -7.523438 5.113281 -7.703125 4.75 -7.828125 C 4.394531 -7.960938 4.003906 -8.03125 3.578125 -8.03125 L 2.234375 -8.03125 L 2.234375 -2.890625 Z M 3.578125 -2.890625 "/></g></g></g><g fill="#471c57" fill-opacity="1"><g transform="translate(131.6914, 282.841299)"><g><path d="M 6.359375 -2.734375 L 7.59375 -0.21875 C 7.625 -0.15625 7.628906 -0.0976562 7.609375 -0.046875 C 7.585938 -0.00390625 7.546875 0.015625 7.484375 0.015625 L 6.765625 0.015625 C 6.722656 0.015625 6.679688 0 6.640625 -0.03125 C 6.609375 -0.0625 6.582031 -0.0976562 6.5625 -0.140625 L 5.484375 -2.390625 C 5.171875 -2.304688 4.84375 -2.265625 4.5 -2.265625 L 2.234375 -2.265625 L 2.234375 -0.171875 C 2.234375 -0.046875 2.175781 0.015625 2.0625 0.015625 L 1.453125 0.015625 C 1.328125 0.015625 1.265625 -0.046875 1.265625 -0.171875 L 1.265625 -8.71875 C 1.265625 -8.78125 1.28125 -8.828125 1.3125 -8.859375 C 1.34375 -8.890625 1.390625 -8.90625 1.453125 -8.90625 L 1.609375 -8.90625 C 1.703125 -8.90625 1.796875 -8.90625 1.890625 -8.90625 C 1.992188 -8.90625 2.0625 -8.90625 2.09375 -8.90625 L 4.5 -8.90625 C 5 -8.90625 5.457031 -8.820312 5.875 -8.65625 C 6.300781 -8.488281 6.671875 -8.253906 6.984375 -7.953125 C 7.296875 -7.660156 7.535156 -7.304688 7.703125 -6.890625 C 7.867188 -6.484375 7.953125 -6.039062 7.953125 -5.5625 C 7.953125 -5.144531 7.882812 -4.753906 7.75 -4.390625 C 7.625 -4.035156 7.441406 -3.71875 7.203125 -3.4375 C 6.960938 -3.15625 6.679688 -2.921875 6.359375 -2.734375 Z M 4.4375 -3.09375 C 4.8125 -3.09375 5.148438 -3.15625 5.453125 -3.28125 C 5.765625 -3.40625 6.035156 -3.578125 6.265625 -3.796875 C 6.492188 -4.015625 6.671875 -4.273438 6.796875 -4.578125 C 6.921875 -4.878906 6.984375 -5.207031 6.984375 -5.5625 C 6.984375 -5.925781 6.914062 -6.253906 6.78125 -6.546875 C 6.65625 -6.847656 6.476562 -7.109375 6.25 -7.328125 C 6.019531 -7.554688 5.75 -7.726562 5.4375 -7.84375 C 5.132812 -7.96875 4.800781 -8.03125 4.4375 -8.03125 L 2.234375 -8.03125 L 2.234375 -3.09375 Z M 4.4375 -3.09375 "/></g></g></g><g fill="#471c57" fill-opacity="1"><g transform="translate(143.4079, 282.841299)"><g><path d="M 0.625 -4.4375 C 0.625 -4.945312 0.695312 -5.429688 0.84375 -5.890625 C 1 -6.359375 1.21875 -6.78125 1.5 -7.15625 C 1.78125 -7.539062 2.109375 -7.867188 2.484375 -8.140625 C 2.867188 -8.421875 3.289062 -8.632812 3.75 -8.78125 C 4.21875 -8.9375 4.707031 -9.015625 5.21875 -9.015625 C 5.726562 -9.015625 6.210938 -8.9375 6.671875 -8.78125 C 7.140625 -8.632812 7.5625 -8.421875 7.9375 -8.140625 C 8.320312 -7.867188 8.65625 -7.539062 8.9375 -7.15625 C 9.21875 -6.78125 9.429688 -6.359375 9.578125 -5.890625 C 9.734375 -5.429688 9.8125 -4.945312 9.8125 -4.4375 C 9.8125 -3.914062 9.734375 -3.425781 9.578125 -2.96875 C 9.429688 -2.507812 9.21875 -2.09375 8.9375 -1.71875 C 8.65625 -1.34375 8.320312 -1.015625 7.9375 -0.734375 C 7.5625 -0.460938 7.140625 -0.25 6.671875 -0.09375 C 6.210938 0.0507812 5.726562 0.125 5.21875 0.125 C 4.707031 0.125 4.21875 0.0507812 3.75 -0.09375 C 3.289062 -0.25 2.867188 -0.460938 2.484375 -0.734375 C 2.109375 -1.015625 1.78125 -1.34375 1.5 -1.71875 C 1.21875 -2.09375 1 -2.507812 0.84375 -2.96875 C 0.695312 -3.425781 0.625 -3.914062 0.625 -4.4375 Z M 1.609375 -4.4375 C 1.609375 -4.03125 1.664062 -3.644531 1.78125 -3.28125 C 1.90625 -2.925781 2.078125 -2.597656 2.296875 -2.296875 C 2.515625 -2.003906 2.769531 -1.75 3.0625 -1.53125 C 3.363281 -1.3125 3.695312 -1.144531 4.0625 -1.03125 C 4.425781 -0.914062 4.8125 -0.859375 5.21875 -0.859375 C 5.625 -0.859375 6.007812 -0.914062 6.375 -1.03125 C 6.738281 -1.144531 7.066406 -1.3125 7.359375 -1.53125 C 7.660156 -1.75 7.921875 -2.003906 8.140625 -2.296875 C 8.359375 -2.597656 8.523438 -2.925781 8.640625 -3.28125 C 8.765625 -3.644531 8.828125 -4.03125 8.828125 -4.4375 C 8.828125 -4.84375 8.765625 -5.222656 8.640625 -5.578125 C 8.523438 -5.941406 8.359375 -6.273438 8.140625 -6.578125 C 7.921875 -6.878906 7.660156 -7.140625 7.359375 -7.359375 C 7.066406 -7.578125 6.738281 -7.742188 6.375 -7.859375 C 6.007812 -7.984375 5.625 -8.046875 5.21875 -8.046875 C 4.8125 -8.046875 4.425781 -7.984375 4.0625 -7.859375 C 3.695312 -7.742188 3.363281 -7.578125 3.0625 -7.359375 C 2.769531 -7.140625 2.515625 -6.878906 2.296875 -6.578125 C 2.078125 -6.273438 1.90625 -5.941406 1.78125 -5.578125 C 1.664062 -5.222656 1.609375 -4.84375 1.609375 -4.4375 Z M 1.609375 -4.4375 "/></g></g></g><g fill="#471c57" fill-opacity="1"><g transform="translate(156.747442, 282.841299)"><g><path d="M 8.25 -8.90625 C 8.332031 -8.90625 8.382812 -8.882812 8.40625 -8.84375 C 8.425781 -8.800781 8.425781 -8.742188 8.40625 -8.671875 L 4.609375 -0.0625 C 4.554688 0.0625 4.476562 0.125 4.375 0.125 L 4.359375 0.125 C 4.253906 0.125 4.175781 0.0625 4.125 -0.0625 L 0.328125 -8.6875 C 0.304688 -8.75 0.304688 -8.800781 0.328125 -8.84375 C 0.359375 -8.882812 0.40625 -8.90625 0.46875 -8.90625 L 1.15625 -8.90625 C 1.207031 -8.90625 1.25 -8.890625 1.28125 -8.859375 C 1.320312 -8.828125 1.351562 -8.789062 1.375 -8.75 L 4.375 -1.75 L 7.375 -8.75 C 7.414062 -8.851562 7.484375 -8.90625 7.578125 -8.90625 Z M 8.25 -8.90625 "/></g></g></g><g fill="#471c57" fill-opacity="1"><g transform="translate(168.387765, 282.841299)"><g><path d="M 2.234375 -8.765625 L 2.234375 -0.140625 C 2.234375 -0.0351562 2.1875 0.015625 2.09375 0.015625 L 1.40625 0.015625 C 1.3125 0.015625 1.265625 -0.0351562 1.265625 -0.140625 L 1.265625 -8.765625 C 1.265625 -8.867188 1.3125 -8.921875 1.40625 -8.921875 L 2.09375 -8.921875 C 2.1875 -8.921875 2.234375 -8.867188 2.234375 -8.765625 Z M 2.234375 -8.765625 "/></g></g></g><g fill="#471c57" fill-opacity="1"><g transform="translate(174.789807, 282.841299)"><g><path d="M 3.859375 0.125 C 3.554688 0.125 3.25 0.0859375 2.9375 0.015625 C 2.632812 -0.0546875 2.335938 -0.160156 2.046875 -0.296875 C 1.765625 -0.429688 1.507812 -0.585938 1.28125 -0.765625 C 1.050781 -0.953125 0.863281 -1.15625 0.71875 -1.375 C 0.6875 -1.414062 0.671875 -1.460938 0.671875 -1.515625 C 0.679688 -1.566406 0.707031 -1.613281 0.75 -1.65625 L 1.171875 -2.078125 C 1.253906 -2.140625 1.347656 -2.113281 1.453125 -2 C 1.628906 -1.78125 1.847656 -1.578125 2.109375 -1.390625 C 2.378906 -1.210938 2.660156 -1.070312 2.953125 -0.96875 C 3.253906 -0.875 3.546875 -0.828125 3.828125 -0.828125 C 4.484375 -0.828125 4.992188 -0.96875 5.359375 -1.25 C 5.722656 -1.53125 5.90625 -1.921875 5.90625 -2.421875 C 5.90625 -2.640625 5.847656 -2.832031 5.734375 -3 C 5.628906 -3.175781 5.472656 -3.328125 5.265625 -3.453125 C 5.066406 -3.585938 4.832031 -3.710938 4.5625 -3.828125 C 4.289062 -3.953125 4 -4.070312 3.6875 -4.1875 C 3.3125 -4.320312 2.960938 -4.46875 2.640625 -4.625 C 2.316406 -4.78125 2.035156 -4.953125 1.796875 -5.140625 C 1.554688 -5.335938 1.367188 -5.566406 1.234375 -5.828125 C 1.097656 -6.085938 1.03125 -6.390625 1.03125 -6.734375 C 1.03125 -7.179688 1.144531 -7.578125 1.375 -7.921875 C 1.613281 -8.265625 1.941406 -8.53125 2.359375 -8.71875 C 2.785156 -8.914062 3.285156 -9.015625 3.859375 -9.015625 C 4.191406 -9.015625 4.507812 -8.972656 4.8125 -8.890625 C 5.125 -8.804688 5.40625 -8.691406 5.65625 -8.546875 C 5.914062 -8.398438 6.128906 -8.226562 6.296875 -8.03125 C 6.378906 -7.914062 6.382812 -7.816406 6.3125 -7.734375 L 5.96875 -7.34375 C 5.914062 -7.28125 5.859375 -7.253906 5.796875 -7.265625 C 5.742188 -7.273438 5.6875 -7.304688 5.625 -7.359375 C 5.488281 -7.515625 5.320312 -7.644531 5.125 -7.75 C 4.925781 -7.851562 4.710938 -7.929688 4.484375 -7.984375 C 4.265625 -8.046875 4.046875 -8.078125 3.828125 -8.078125 C 3.441406 -8.078125 3.113281 -8.019531 2.84375 -7.90625 C 2.570312 -7.789062 2.363281 -7.628906 2.21875 -7.421875 C 2.070312 -7.222656 2 -6.988281 2 -6.71875 C 2 -6.488281 2.054688 -6.285156 2.171875 -6.109375 C 2.296875 -5.941406 2.457031 -5.789062 2.65625 -5.65625 C 2.851562 -5.519531 3.082031 -5.394531 3.34375 -5.28125 C 3.613281 -5.164062 3.890625 -5.054688 4.171875 -4.953125 C 4.515625 -4.835938 4.851562 -4.707031 5.1875 -4.5625 C 5.519531 -4.414062 5.816406 -4.242188 6.078125 -4.046875 C 6.335938 -3.859375 6.546875 -3.632812 6.703125 -3.375 C 6.859375 -3.113281 6.9375 -2.800781 6.9375 -2.4375 C 6.9375 -1.914062 6.804688 -1.460938 6.546875 -1.078125 C 6.296875 -0.691406 5.941406 -0.394531 5.484375 -0.1875 C 5.023438 0.0195312 4.484375 0.125 3.859375 0.125 Z M 3.859375 0.125 "/></g></g></g><g fill="#471c57" fill-opacity="1"><g transform="translate(185.281692, 282.841299)"><g><path d="M 2.234375 -8.765625 L 2.234375 -0.140625 C 2.234375 -0.0351562 2.1875 0.015625 2.09375 0.015625 L 1.40625 0.015625 C 1.3125 0.015625 1.265625 -0.0351562 1.265625 -0.140625 L 1.265625 -8.765625 C 1.265625 -8.867188 1.3125 -8.921875 1.40625 -8.921875 L 2.09375 -8.921875 C 2.1875 -8.921875 2.234375 -8.867188 2.234375 -8.765625 Z M 2.234375 -8.765625 "/></g></g></g><g fill="#471c57" fill-opacity="1"><g transform="translate(191.683734, 282.841299)"><g><path d="M 0.625 -4.4375 C 0.625 -4.945312 0.695312 -5.429688 0.84375 -5.890625 C 1 -6.359375 1.21875 -6.78125 1.5 -7.15625 C 1.78125 -7.539062 2.109375 -7.867188 2.484375 -8.140625 C 2.867188 -8.421875 3.289062 -8.632812 3.75 -8.78125 C 4.21875 -8.9375 4.707031 -9.015625 5.21875 -9.015625 C 5.726562 -9.015625 6.210938 -8.9375 6.671875 -8.78125 C 7.140625 -8.632812 7.5625 -8.421875 7.9375 -8.140625 C 8.320312 -7.867188 8.65625 -7.539062 8.9375 -7.15625 C 9.21875 -6.78125 9.429688 -6.359375 9.578125 -5.890625 C 9.734375 -5.429688 9.8125 -4.945312 9.8125 -4.4375 C 9.8125 -3.914062 9.734375 -3.425781 9.578125 -2.96875 C 9.429688 -2.507812 9.21875 -2.09375 8.9375 -1.71875 C 8.65625 -1.34375 8.320312 -1.015625 7.9375 -0.734375 C 7.5625 -0.460938 7.140625 -0.25 6.671875 -0.09375 C 6.210938 0.0507812 5.726562 0.125 5.21875 0.125 C 4.707031 0.125 4.21875 0.0507812 3.75 -0.09375 C 3.289062 -0.25 2.867188 -0.460938 2.484375 -0.734375 C 2.109375 -1.015625 1.78125 -1.34375 1.5 -1.71875 C 1.21875 -2.09375 1 -2.507812 0.84375 -2.96875 C 0.695312 -3.425781 0.625 -3.914062 0.625 -4.4375 Z M 1.609375 -4.4375 C 1.609375 -4.03125 1.664062 -3.644531 1.78125 -3.28125 C 1.90625 -2.925781 2.078125 -2.597656 2.296875 -2.296875 C 2.515625 -2.003906 2.769531 -1.75 3.0625 -1.53125 C 3.363281 -1.3125 3.695312 -1.144531 4.0625 -1.03125 C 4.425781 -0.914062 4.8125 -0.859375 5.21875 -0.859375 C 5.625 -0.859375 6.007812 -0.914062 6.375 -1.03125 C 6.738281 -1.144531 7.066406 -1.3125 7.359375 -1.53125 C 7.660156 -1.75 7.921875 -2.003906 8.140625 -2.296875 C 8.359375 -2.597656 8.523438 -2.925781 8.640625 -3.28125 C 8.765625 -3.644531 8.828125 -4.03125 8.828125 -4.4375 C 8.828125 -4.84375 8.765625 -5.222656 8.640625 -5.578125 C 8.523438 -5.941406 8.359375 -6.273438 8.140625 -6.578125 C 7.921875 -6.878906 7.660156 -7.140625 7.359375 -7.359375 C 7.066406 -7.578125 6.738281 -7.742188 6.375 -7.859375 C 6.007812 -7.984375 5.625 -8.046875 5.21875 -8.046875 C 4.8125 -8.046875 4.425781 -7.984375 4.0625 -7.859375 C 3.695312 -7.742188 3.363281 -7.578125 3.0625 -7.359375 C 2.769531 -7.140625 2.515625 -6.878906 2.296875 -6.578125 C 2.078125 -6.273438 1.90625 -5.941406 1.78125 -5.578125 C 1.664062 -5.222656 1.609375 -4.84375 1.609375 -4.4375 Z M 1.609375 -4.4375 "/></g></g></g><g fill="#471c57" fill-opacity="1"><g transform="translate(205.023276, 282.841299)"><g><path d="M 8.71875 -8.921875 C 8.820312 -8.921875 8.875 -8.867188 8.875 -8.765625 L 8.875 -0.125 C 8.875 -0.0625 8.859375 -0.015625 8.828125 0.015625 C 8.796875 0.0546875 8.753906 0.078125 8.703125 0.078125 C 8.648438 0.078125 8.601562 0.0625 8.5625 0.03125 C 8.53125 0.0078125 8.488281 -0.0234375 8.4375 -0.078125 L 2.234375 -6.828125 L 2.234375 -0.140625 C 2.234375 -0.0351562 2.1875 0.015625 2.09375 0.015625 L 1.40625 0.015625 C 1.300781 0.015625 1.25 -0.0351562 1.25 -0.140625 L 1.25 -8.796875 C 1.25 -8.847656 1.265625 -8.890625 1.296875 -8.921875 C 1.328125 -8.960938 1.367188 -8.984375 1.421875 -8.984375 L 1.4375 -8.984375 C 1.476562 -8.984375 1.515625 -8.96875 1.546875 -8.9375 C 1.585938 -8.90625 1.628906 -8.863281 1.671875 -8.8125 L 7.890625 -2.0625 L 7.890625 -8.765625 C 7.890625 -8.867188 7.941406 -8.921875 8.046875 -8.921875 Z M 8.71875 -8.921875 "/></g></g></g><g fill="#471c57" fill-opacity="1"><g transform="translate(218.058131, 282.841299)"><g><path d="M 8.28125 -0.21875 C 8.3125 -0.15625 8.3125 -0.0976562 8.28125 -0.046875 C 8.25 -0.00390625 8.195312 0.015625 8.125 0.015625 L 7.4375 0.015625 C 7.394531 0.015625 7.351562 0 7.3125 -0.03125 C 7.28125 -0.0625 7.257812 -0.0976562 7.25 -0.140625 L 6.765625 -1.28125 L 1.8125 -1.28125 L 1.34375 -0.140625 C 1.332031 -0.0976562 1.304688 -0.0625 1.265625 -0.03125 C 1.234375 0 1.195312 0.015625 1.15625 0.015625 L 0.46875 0.015625 C 0.394531 0.015625 0.34375 -0.00390625 0.3125 -0.046875 C 0.289062 -0.0859375 0.289062 -0.144531 0.3125 -0.21875 L 4.0625 -8.8125 C 4.101562 -8.925781 4.171875 -8.984375 4.265625 -8.984375 L 4.3125 -8.984375 C 4.363281 -8.984375 4.40625 -8.96875 4.4375 -8.9375 C 4.476562 -8.90625 4.507812 -8.863281 4.53125 -8.8125 Z M 2.171875 -2.140625 L 6.40625 -2.140625 L 4.296875 -7.234375 Z M 2.171875 -2.140625 "/></g></g></g><g fill="#471c57" fill-opacity="1"><g transform="translate(229.551969, 282.841299)"><g><path d="M 6.671875 -0.875 C 6.773438 -0.875 6.828125 -0.820312 6.828125 -0.71875 L 6.828125 -0.15625 C 6.828125 -0.0507812 6.773438 0 6.671875 0 L 1.40625 0 C 1.3125 0 1.265625 -0.0507812 1.265625 -0.15625 L 1.265625 -8.765625 C 1.265625 -8.867188 1.3125 -8.921875 1.40625 -8.921875 L 2.09375 -8.921875 C 2.1875 -8.921875 2.234375 -8.867188 2.234375 -8.765625 L 2.234375 -0.875 Z M 6.671875 -0.875 "/></g></g></g><g fill="#471c57" fill-opacity="1"><g transform="translate(239.452058, 282.841299)"><g/></g></g><g fill="#471c57" fill-opacity="1"><g transform="translate(245.854111, 282.841299)"><g><path d="M 7.46875 -1.671875 C 7.507812 -1.703125 7.554688 -1.71875 7.609375 -1.71875 C 7.671875 -1.71875 7.71875 -1.703125 7.75 -1.671875 L 8.109375 -1.109375 C 8.128906 -1.078125 8.128906 -1.035156 8.109375 -0.984375 C 8.097656 -0.929688 8.066406 -0.890625 8.015625 -0.859375 C 7.773438 -0.648438 7.503906 -0.472656 7.203125 -0.328125 C 6.898438 -0.179688 6.582031 -0.0703125 6.25 0 C 5.914062 0.0820312 5.585938 0.125 5.265625 0.125 C 4.753906 0.125 4.265625 0.0507812 3.796875 -0.09375 C 3.328125 -0.25 2.898438 -0.460938 2.515625 -0.734375 C 2.128906 -1.015625 1.796875 -1.34375 1.515625 -1.71875 C 1.234375 -2.101562 1.015625 -2.523438 0.859375 -2.984375 C 0.703125 -3.441406 0.625 -3.925781 0.625 -4.4375 C 0.625 -4.945312 0.703125 -5.429688 0.859375 -5.890625 C 1.015625 -6.359375 1.234375 -6.78125 1.515625 -7.15625 C 1.796875 -7.539062 2.128906 -7.867188 2.515625 -8.140625 C 2.898438 -8.421875 3.328125 -8.632812 3.796875 -8.78125 C 4.265625 -8.9375 4.753906 -9.015625 5.265625 -9.015625 C 5.585938 -9.015625 5.910156 -8.976562 6.234375 -8.90625 C 6.566406 -8.832031 6.890625 -8.722656 7.203125 -8.578125 C 7.515625 -8.429688 7.796875 -8.253906 8.046875 -8.046875 C 8.109375 -7.992188 8.140625 -7.941406 8.140625 -7.890625 C 8.148438 -7.847656 8.144531 -7.8125 8.125 -7.78125 L 7.75 -7.21875 C 7.726562 -7.195312 7.691406 -7.179688 7.640625 -7.171875 C 7.597656 -7.160156 7.546875 -7.175781 7.484375 -7.21875 C 7.160156 -7.5 6.804688 -7.707031 6.421875 -7.84375 C 6.046875 -7.976562 5.660156 -8.046875 5.265625 -8.046875 C 4.859375 -8.046875 4.472656 -7.984375 4.109375 -7.859375 C 3.742188 -7.742188 3.40625 -7.570312 3.09375 -7.34375 C 2.789062 -7.125 2.523438 -6.863281 2.296875 -6.5625 C 2.078125 -6.269531 1.90625 -5.941406 1.78125 -5.578125 C 1.664062 -5.222656 1.609375 -4.84375 1.609375 -4.4375 C 1.609375 -4.039062 1.664062 -3.660156 1.78125 -3.296875 C 1.90625 -2.941406 2.082031 -2.613281 2.3125 -2.3125 C 2.539062 -2.019531 2.804688 -1.765625 3.109375 -1.546875 C 3.410156 -1.328125 3.742188 -1.15625 4.109375 -1.03125 C 4.484375 -0.914062 4.867188 -0.859375 5.265625 -0.859375 C 5.640625 -0.859375 6.019531 -0.925781 6.40625 -1.0625 C 6.800781 -1.195312 7.15625 -1.398438 7.46875 -1.671875 Z M 7.46875 -1.671875 "/></g></g></g><g fill="#471c57" fill-opacity="1"><g transform="translate(257.594055, 282.841299)"><g><path d="M 0.625 -4.4375 C 0.625 -4.945312 0.695312 -5.429688 0.84375 -5.890625 C 1 -6.359375 1.21875 -6.78125 1.5 -7.15625 C 1.78125 -7.539062 2.109375 -7.867188 2.484375 -8.140625 C 2.867188 -8.421875 3.289062 -8.632812 3.75 -8.78125 C 4.21875 -8.9375 4.707031 -9.015625 5.21875 -9.015625 C 5.726562 -9.015625 6.210938 -8.9375 6.671875 -8.78125 C 7.140625 -8.632812 7.5625 -8.421875 7.9375 -8.140625 C 8.320312 -7.867188 8.65625 -7.539062 8.9375 -7.15625 C 9.21875 -6.78125 9.429688 -6.359375 9.578125 -5.890625 C 9.734375 -5.429688 9.8125 -4.945312 9.8125 -4.4375 C 9.8125 -3.914062 9.734375 -3.425781 9.578125 -2.96875 C 9.429688 -2.507812 9.21875 -2.09375 8.9375 -1.71875 C 8.65625 -1.34375 8.320312 -1.015625 7.9375 -0.734375 C 7.5625 -0.460938 7.140625 -0.25 6.671875 -0.09375 C 6.210938 0.0507812 5.726562 0.125 5.21875 0.125 C 4.707031 0.125 4.21875 0.0507812 3.75 -0.09375 C 3.289062 -0.25 2.867188 -0.460938 2.484375 -0.734375 C 2.109375 -1.015625 1.78125 -1.34375 1.5 -1.71875 C 1.21875 -2.09375 1 -2.507812 0.84375 -2.96875 C 0.695312 -3.425781 0.625 -3.914062 0.625 -4.4375 Z M 1.609375 -4.4375 C 1.609375 -4.03125 1.664062 -3.644531 1.78125 -3.28125 C 1.90625 -2.925781 2.078125 -2.597656 2.296875 -2.296875 C 2.515625 -2.003906 2.769531 -1.75 3.0625 -1.53125 C 3.363281 -1.3125 3.695312 -1.144531 4.0625 -1.03125 C 4.425781 -0.914062 4.8125 -0.859375 5.21875 -0.859375 C 5.625 -0.859375 6.007812 -0.914062 6.375 -1.03125 C 6.738281 -1.144531 7.066406 -1.3125 7.359375 -1.53125 C 7.660156 -1.75 7.921875 -2.003906 8.140625 -2.296875 C 8.359375 -2.597656 8.523438 -2.925781 8.640625 -3.28125 C 8.765625 -3.644531 8.828125 -4.03125 8.828125 -4.4375 C 8.828125 -4.84375 8.765625 -5.222656 8.640625 -5.578125 C 8.523438 -5.941406 8.359375 -6.273438 8.140625 -6.578125 C 7.921875 -6.878906 7.660156 -7.140625 7.359375 -7.359375 C 7.066406 -7.578125 6.738281 -7.742188 6.375 -7.859375 C 6.007812 -7.984375 5.625 -8.046875 5.21875 -8.046875 C 4.8125 -8.046875 4.425781 -7.984375 4.0625 -7.859375 C 3.695312 -7.742188 3.363281 -7.578125 3.0625 -7.359375 C 2.769531 -7.140625 2.515625 -6.878906 2.296875 -6.578125 C 2.078125 -6.273438 1.90625 -5.941406 1.78125 -5.578125 C 1.664062 -5.222656 1.609375 -4.84375 1.609375 -4.4375 Z M 1.609375 -4.4375 "/></g></g></g><g fill="#471c57" fill-opacity="1"><g transform="translate(270.933608, 282.841299)"><g><path d="M 8.71875 -8.921875 C 8.820312 -8.921875 8.875 -8.867188 8.875 -8.765625 L 8.875 -0.125 C 8.875 -0.0625 8.859375 -0.015625 8.828125 0.015625 C 8.796875 0.0546875 8.753906 0.078125 8.703125 0.078125 C 8.648438 0.078125 8.601562 0.0625 8.5625 0.03125 C 8.53125 0.0078125 8.488281 -0.0234375 8.4375 -0.078125 L 2.234375 -6.828125 L 2.234375 -0.140625 C 2.234375 -0.0351562 2.1875 0.015625 2.09375 0.015625 L 1.40625 0.015625 C 1.300781 0.015625 1.25 -0.0351562 1.25 -0.140625 L 1.25 -8.796875 C 1.25 -8.847656 1.265625 -8.890625 1.296875 -8.921875 C 1.328125 -8.960938 1.367188 -8.984375 1.421875 -8.984375 L 1.4375 -8.984375 C 1.476562 -8.984375 1.515625 -8.96875 1.546875 -8.9375 C 1.585938 -8.90625 1.628906 -8.863281 1.671875 -8.8125 L 7.890625 -2.0625 L 7.890625 -8.765625 C 7.890625 -8.867188 7.941406 -8.921875 8.046875 -8.921875 Z M 8.71875 -8.921875 "/></g></g></g><g fill="#471c57" fill-opacity="1"><g transform="translate(283.968474, 282.841299)"><g/></g></g><g fill="#471c57" fill-opacity="1"><g transform="translate(290.370527, 282.841299)"><g><path d="M 6.671875 -0.875 C 6.773438 -0.875 6.828125 -0.820312 6.828125 -0.71875 L 6.828125 -0.15625 C 6.828125 -0.0507812 6.773438 0 6.671875 0 L 1.40625 0 C 1.3125 0 1.265625 -0.0507812 1.265625 -0.15625 L 1.265625 -8.765625 C 1.265625 -8.867188 1.3125 -8.921875 1.40625 -8.921875 L 2.09375 -8.921875 C 2.1875 -8.921875 2.234375 -8.867188 2.234375 -8.765625 L 2.234375 -0.875 Z M 6.671875 -0.875 "/></g></g></g><g fill="#471c57" fill-opacity="1"><g transform="translate(300.270627, 282.841299)"><g><path d="M 0.625 -4.4375 C 0.625 -4.945312 0.695312 -5.429688 0.84375 -5.890625 C 1 -6.359375 1.21875 -6.78125 1.5 -7.15625 C 1.78125 -7.539062 2.109375 -7.867188 2.484375 -8.140625 C 2.867188 -8.421875 3.289062 -8.632812 3.75 -8.78125 C 4.21875 -8.9375 4.707031 -9.015625 5.21875 -9.015625 C 5.726562 -9.015625 6.210938 -8.9375 6.671875 -8.78125 C 7.140625 -8.632812 7.5625 -8.421875 7.9375 -8.140625 C 8.320312 -7.867188 8.65625 -7.539062 8.9375 -7.15625 C 9.21875 -6.78125 9.429688 -6.359375 9.578125 -5.890625 C 9.734375 -5.429688 9.8125 -4.945312 9.8125 -4.4375 C 9.8125 -3.914062 9.734375 -3.425781 9.578125 -2.96875 C 9.429688 -2.507812 9.21875 -2.09375 8.9375 -1.71875 C 8.65625 -1.34375 8.320312 -1.015625 7.9375 -0.734375 C 7.5625 -0.460938 7.140625 -0.25 6.671875 -0.09375 C 6.210938 0.0507812 5.726562 0.125 5.21875 0.125 C 4.707031 0.125 4.21875 0.0507812 3.75 -0.09375 C 3.289062 -0.25 2.867188 -0.460938 2.484375 -0.734375 C 2.109375 -1.015625 1.78125 -1.34375 1.5 -1.71875 C 1.21875 -2.09375 1 -2.507812 0.84375 -2.96875 C 0.695312 -3.425781 0.625 -3.914062 0.625 -4.4375 Z M 1.609375 -4.4375 C 1.609375 -4.03125 1.664062 -3.644531 1.78125 -3.28125 C 1.90625 -2.925781 2.078125 -2.597656 2.296875 -2.296875 C 2.515625 -2.003906 2.769531 -1.75 3.0625 -1.53125 C 3.363281 -1.3125 3.695312 -1.144531 4.0625 -1.03125 C 4.425781 -0.914062 4.8125 -0.859375 5.21875 -0.859375 C 5.625 -0.859375 6.007812 -0.914062 6.375 -1.03125 C 6.738281 -1.144531 7.066406 -1.3125 7.359375 -1.53125 C 7.660156 -1.75 7.921875 -2.003906 8.140625 -2.296875 C 8.359375 -2.597656 8.523438 -2.925781 8.640625 -3.28125 C 8.765625 -3.644531 8.828125 -4.03125 8.828125 -4.4375 C 8.828125 -4.84375 8.765625 -5.222656 8.640625 -5.578125 C 8.523438 -5.941406 8.359375 -6.273438 8.140625 -6.578125 C 7.921875 -6.878906 7.660156 -7.140625 7.359375 -7.359375 C 7.066406 -7.578125 6.738281 -7.742188 6.375 -7.859375 C 6.007812 -7.984375 5.625 -8.046875 5.21875 -8.046875 C 4.8125 -8.046875 4.425781 -7.984375 4.0625 -7.859375 C 3.695312 -7.742188 3.363281 -7.578125 3.0625 -7.359375 C 2.769531 -7.140625 2.515625 -6.878906 2.296875 -6.578125 C 2.078125 -6.273438 1.90625 -5.941406 1.78125 -5.578125 C 1.664062 -5.222656 1.609375 -4.84375 1.609375 -4.4375 Z M 1.609375 -4.4375 "/></g></g></g><g fill="#471c57" fill-opacity="1"><g transform="translate(313.61018, 282.841299)"><g><path d="M 8.109375 -4.09375 C 8.148438 -4.09375 8.179688 -4.078125 8.203125 -4.046875 C 8.234375 -4.023438 8.25 -3.988281 8.25 -3.9375 L 8.25 -1.015625 C 8.25 -0.929688 8.21875 -0.859375 8.15625 -0.796875 C 7.925781 -0.628906 7.648438 -0.472656 7.328125 -0.328125 C 7.003906 -0.191406 6.664062 -0.0820312 6.3125 0 C 5.957031 0.0820312 5.601562 0.125 5.25 0.125 C 4.738281 0.125 4.25 0.0507812 3.78125 -0.09375 C 3.320312 -0.25 2.898438 -0.460938 2.515625 -0.734375 C 2.128906 -1.015625 1.796875 -1.34375 1.515625 -1.71875 C 1.234375 -2.101562 1.015625 -2.523438 0.859375 -2.984375 C 0.703125 -3.441406 0.625 -3.925781 0.625 -4.4375 C 0.625 -4.957031 0.703125 -5.445312 0.859375 -5.90625 C 1.015625 -6.363281 1.234375 -6.78125 1.515625 -7.15625 C 1.796875 -7.539062 2.128906 -7.867188 2.515625 -8.140625 C 2.898438 -8.421875 3.320312 -8.632812 3.78125 -8.78125 C 4.25 -8.9375 4.738281 -9.015625 5.25 -9.015625 C 5.550781 -9.015625 5.863281 -8.984375 6.1875 -8.921875 C 6.519531 -8.859375 6.84375 -8.753906 7.15625 -8.609375 C 7.476562 -8.472656 7.773438 -8.289062 8.046875 -8.0625 C 8.085938 -8.019531 8.113281 -7.972656 8.125 -7.921875 C 8.132812 -7.878906 8.125 -7.835938 8.09375 -7.796875 L 7.734375 -7.265625 C 7.710938 -7.222656 7.675781 -7.203125 7.625 -7.203125 C 7.570312 -7.203125 7.523438 -7.21875 7.484375 -7.25 C 7.253906 -7.457031 7.007812 -7.617188 6.75 -7.734375 C 6.488281 -7.847656 6.226562 -7.925781 5.96875 -7.96875 C 5.71875 -8.019531 5.476562 -8.046875 5.25 -8.046875 C 4.84375 -8.046875 4.457031 -7.984375 4.09375 -7.859375 C 3.726562 -7.742188 3.394531 -7.578125 3.09375 -7.359375 C 2.789062 -7.140625 2.523438 -6.878906 2.296875 -6.578125 C 2.078125 -6.285156 1.90625 -5.957031 1.78125 -5.59375 C 1.664062 -5.226562 1.609375 -4.84375 1.609375 -4.4375 C 1.609375 -3.9375 1.695312 -3.460938 1.875 -3.015625 C 2.0625 -2.578125 2.316406 -2.191406 2.640625 -1.859375 C 2.972656 -1.535156 3.363281 -1.28125 3.8125 -1.09375 C 4.257812 -0.90625 4.738281 -0.8125 5.25 -0.8125 C 5.488281 -0.8125 5.734375 -0.84375 5.984375 -0.90625 C 6.242188 -0.96875 6.488281 -1.050781 6.71875 -1.15625 C 6.957031 -1.257812 7.15625 -1.375 7.3125 -1.5 L 7.3125 -3.265625 L 5.21875 -3.265625 C 5.132812 -3.265625 5.09375 -3.3125 5.09375 -3.40625 L 5.09375 -3.9375 C 5.09375 -3.988281 5.101562 -4.023438 5.125 -4.046875 C 5.144531 -4.078125 5.175781 -4.09375 5.21875 -4.09375 Z M 8.109375 -4.09375 "/></g></g></g><g fill="#471c57" fill-opacity="1"><g transform="translate(325.689968, 282.841299)"><g><path d="M 0.625 -4.4375 C 0.625 -4.945312 0.695312 -5.429688 0.84375 -5.890625 C 1 -6.359375 1.21875 -6.78125 1.5 -7.15625 C 1.78125 -7.539062 2.109375 -7.867188 2.484375 -8.140625 C 2.867188 -8.421875 3.289062 -8.632812 3.75 -8.78125 C 4.21875 -8.9375 4.707031 -9.015625 5.21875 -9.015625 C 5.726562 -9.015625 6.210938 -8.9375 6.671875 -8.78125 C 7.140625 -8.632812 7.5625 -8.421875 7.9375 -8.140625 C 8.320312 -7.867188 8.65625 -7.539062 8.9375 -7.15625 C 9.21875 -6.78125 9.429688 -6.359375 9.578125 -5.890625 C 9.734375 -5.429688 9.8125 -4.945312 9.8125 -4.4375 C 9.8125 -3.914062 9.734375 -3.425781 9.578125 -2.96875 C 9.429688 -2.507812 9.21875 -2.09375 8.9375 -1.71875 C 8.65625 -1.34375 8.320312 -1.015625 7.9375 -0.734375 C 7.5625 -0.460938 7.140625 -0.25 6.671875 -0.09375 C 6.210938 0.0507812 5.726562 0.125 5.21875 0.125 C 4.707031 0.125 4.21875 0.0507812 3.75 -0.09375 C 3.289062 -0.25 2.867188 -0.460938 2.484375 -0.734375 C 2.109375 -1.015625 1.78125 -1.34375 1.5 -1.71875 C 1.21875 -2.09375 1 -2.507812 0.84375 -2.96875 C 0.695312 -3.425781 0.625 -3.914062 0.625 -4.4375 Z M 1.609375 -4.4375 C 1.609375 -4.03125 1.664062 -3.644531 1.78125 -3.28125 C 1.90625 -2.925781 2.078125 -2.597656 2.296875 -2.296875 C 2.515625 -2.003906 2.769531 -1.75 3.0625 -1.53125 C 3.363281 -1.3125 3.695312 -1.144531 4.0625 -1.03125 C 4.425781 -0.914062 4.8125 -0.859375 5.21875 -0.859375 C 5.625 -0.859375 6.007812 -0.914062 6.375 -1.03125 C 6.738281 -1.144531 7.066406 -1.3125 7.359375 -1.53125 C 7.660156 -1.75 7.921875 -2.003906 8.140625 -2.296875 C 8.359375 -2.597656 8.523438 -2.925781 8.640625 -3.28125 C 8.765625 -3.644531 8.828125 -4.03125 8.828125 -4.4375 C 8.828125 -4.84375 8.765625 -5.222656 8.640625 -5.578125 C 8.523438 -5.941406 8.359375 -6.273438 8.140625 -6.578125 C 7.921875 -6.878906 7.660156 -7.140625 7.359375 -7.359375 C 7.066406 -7.578125 6.738281 -7.742188 6.375 -7.859375 C 6.007812 -7.984375 5.625 -8.046875 5.21875 -8.046875 C 4.8125 -8.046875 4.425781 -7.984375 4.0625 -7.859375 C 3.695312 -7.742188 3.363281 -7.578125 3.0625 -7.359375 C 2.769531 -7.140625 2.515625 -6.878906 2.296875 -6.578125 C 2.078125 -6.273438 1.90625 -5.941406 1.78125 -5.578125 C 1.664062 -5.222656 1.609375 -4.84375 1.609375 -4.4375 Z M 1.609375 -4.4375 "/></g></g></g><g fill="#471c57" fill-opacity="1"><g transform="translate(133.918381, 299.341298)"><g><path d="M 1.265625 -0.1875 L 1.265625 -8.71875 C 1.265625 -8.84375 1.328125 -8.90625 1.453125 -8.90625 L 4.453125 -8.90625 C 4.972656 -8.90625 5.460938 -8.832031 5.921875 -8.6875 C 6.378906 -8.539062 6.796875 -8.332031 7.171875 -8.0625 C 7.554688 -7.800781 7.882812 -7.484375 8.15625 -7.109375 C 8.425781 -6.742188 8.632812 -6.335938 8.78125 -5.890625 C 8.925781 -5.441406 9 -4.960938 9 -4.453125 C 9 -3.941406 8.925781 -3.460938 8.78125 -3.015625 C 8.632812 -2.566406 8.421875 -2.160156 8.140625 -1.796875 C 7.867188 -1.429688 7.539062 -1.113281 7.15625 -0.84375 C 6.78125 -0.570312 6.359375 -0.363281 5.890625 -0.21875 C 5.429688 -0.0703125 4.9375 0 4.40625 0 L 1.453125 0 C 1.328125 0 1.265625 -0.0625 1.265625 -0.1875 Z M 2.234375 -0.9375 L 4.40625 -0.9375 C 4.925781 -0.9375 5.40625 -1.023438 5.84375 -1.203125 C 6.28125 -1.390625 6.660156 -1.640625 6.984375 -1.953125 C 7.316406 -2.273438 7.570312 -2.648438 7.75 -3.078125 C 7.925781 -3.503906 8.015625 -3.960938 8.015625 -4.453125 C 8.015625 -4.941406 7.925781 -5.398438 7.75 -5.828125 C 7.570312 -6.253906 7.320312 -6.628906 7 -6.953125 C 6.675781 -7.273438 6.296875 -7.523438 5.859375 -7.703125 C 5.421875 -7.890625 4.945312 -7.984375 4.4375 -7.984375 L 2.234375 -7.96875 Z M 2.234375 -0.9375 "/></g></g></g><g fill="#471c57" fill-opacity="1"><g transform="translate(146.449333, 299.341298)"><g><path d="M 7.546875 -0.9375 C 7.628906 -0.9375 7.691406 -0.914062 7.734375 -0.875 C 7.785156 -0.84375 7.8125 -0.789062 7.8125 -0.71875 L 7.8125 -0.1875 C 7.8125 -0.125 7.789062 -0.078125 7.75 -0.046875 C 7.707031 -0.015625 7.65625 0 7.59375 0 L 1.453125 0 C 1.328125 0 1.265625 -0.0625 1.265625 -0.1875 L 1.265625 -8.71875 C 1.265625 -8.84375 1.328125 -8.90625 1.453125 -8.90625 L 7.46875 -8.90625 C 7.601562 -8.90625 7.671875 -8.84375 7.671875 -8.71875 L 7.671875 -8.15625 C 7.671875 -8.03125 7.601562 -7.96875 7.46875 -7.96875 L 2.234375 -7.96875 L 2.234375 -4.296875 L 6.5 -4.296875 C 6.65625 -4.296875 6.734375 -4.226562 6.734375 -4.09375 L 6.734375 -3.5625 C 6.734375 -3.4375 6.65625 -3.375 6.5 -3.375 L 2.234375 -3.375 L 2.234375 -0.9375 Z M 7.546875 -0.9375 "/></g></g></g><g fill="#471c57" fill-opacity="1"><g transform="translate(157.761535, 299.341298)"><g><path d="M 6.671875 -0.875 C 6.773438 -0.875 6.828125 -0.820312 6.828125 -0.71875 L 6.828125 -0.15625 C 6.828125 -0.0507812 6.773438 0 6.671875 0 L 1.40625 0 C 1.3125 0 1.265625 -0.0507812 1.265625 -0.15625 L 1.265625 -8.765625 C 1.265625 -8.867188 1.3125 -8.921875 1.40625 -8.921875 L 2.09375 -8.921875 C 2.1875 -8.921875 2.234375 -8.867188 2.234375 -8.765625 L 2.234375 -0.875 Z M 6.671875 -0.875 "/></g></g></g><g fill="#471c57" fill-opacity="1"><g transform="translate(167.661626, 299.341298)"><g/></g></g><g fill="#471c57" fill-opacity="1"><g transform="translate(174.063674, 299.341298)"><g><path d="M 7.46875 -1.671875 C 7.507812 -1.703125 7.554688 -1.71875 7.609375 -1.71875 C 7.671875 -1.71875 7.71875 -1.703125 7.75 -1.671875 L 8.109375 -1.109375 C 8.128906 -1.078125 8.128906 -1.035156 8.109375 -0.984375 C 8.097656 -0.929688 8.066406 -0.890625 8.015625 -0.859375 C 7.773438 -0.648438 7.503906 -0.472656 7.203125 -0.328125 C 6.898438 -0.179688 6.582031 -0.0703125 6.25 0 C 5.914062 0.0820312 5.585938 0.125 5.265625 0.125 C 4.753906 0.125 4.265625 0.0507812 3.796875 -0.09375 C 3.328125 -0.25 2.898438 -0.460938 2.515625 -0.734375 C 2.128906 -1.015625 1.796875 -1.34375 1.515625 -1.71875 C 1.234375 -2.101562 1.015625 -2.523438 0.859375 -2.984375 C 0.703125 -3.441406 0.625 -3.925781 0.625 -4.4375 C 0.625 -4.945312 0.703125 -5.429688 0.859375 -5.890625 C 1.015625 -6.359375 1.234375 -6.78125 1.515625 -7.15625 C 1.796875 -7.539062 2.128906 -7.867188 2.515625 -8.140625 C 2.898438 -8.421875 3.328125 -8.632812 3.796875 -8.78125 C 4.265625 -8.9375 4.753906 -9.015625 5.265625 -9.015625 C 5.585938 -9.015625 5.910156 -8.976562 6.234375 -8.90625 C 6.566406 -8.832031 6.890625 -8.722656 7.203125 -8.578125 C 7.515625 -8.429688 7.796875 -8.253906 8.046875 -8.046875 C 8.109375 -7.992188 8.140625 -7.941406 8.140625 -7.890625 C 8.148438 -7.847656 8.144531 -7.8125 8.125 -7.78125 L 7.75 -7.21875 C 7.726562 -7.195312 7.691406 -7.179688 7.640625 -7.171875 C 7.597656 -7.160156 7.546875 -7.175781 7.484375 -7.21875 C 7.160156 -7.5 6.804688 -7.707031 6.421875 -7.84375 C 6.046875 -7.976562 5.660156 -8.046875 5.265625 -8.046875 C 4.859375 -8.046875 4.472656 -7.984375 4.109375 -7.859375 C 3.742188 -7.742188 3.40625 -7.570312 3.09375 -7.34375 C 2.789062 -7.125 2.523438 -6.863281 2.296875 -6.5625 C 2.078125 -6.269531 1.90625 -5.941406 1.78125 -5.578125 C 1.664062 -5.222656 1.609375 -4.84375 1.609375 -4.4375 C 1.609375 -4.039062 1.664062 -3.660156 1.78125 -3.296875 C 1.90625 -2.941406 2.082031 -2.613281 2.3125 -2.3125 C 2.539062 -2.019531 2.804688 -1.765625 3.109375 -1.546875 C 3.410156 -1.328125 3.742188 -1.15625 4.109375 -1.03125 C 4.484375 -0.914062 4.867188 -0.859375 5.265625 -0.859375 C 5.640625 -0.859375 6.019531 -0.925781 6.40625 -1.0625 C 6.800781 -1.195312 7.15625 -1.398438 7.46875 -1.671875 Z M 7.46875 -1.671875 "/></g></g></g><g fill="#471c57" fill-opacity="1"><g transform="translate(185.803612, 299.341298)"><g><path d="M 8.28125 -0.21875 C 8.3125 -0.15625 8.3125 -0.0976562 8.28125 -0.046875 C 8.25 -0.00390625 8.195312 0.015625 8.125 0.015625 L 7.4375 0.015625 C 7.394531 0.015625 7.351562 0 7.3125 -0.03125 C 7.28125 -0.0625 7.257812 -0.0976562 7.25 -0.140625 L 6.765625 -1.28125 L 1.8125 -1.28125 L 1.34375 -0.140625 C 1.332031 -0.0976562 1.304688 -0.0625 1.265625 -0.03125 C 1.234375 0 1.195312 0.015625 1.15625 0.015625 L 0.46875 0.015625 C 0.394531 0.015625 0.34375 -0.00390625 0.3125 -0.046875 C 0.289062 -0.0859375 0.289062 -0.144531 0.3125 -0.21875 L 4.0625 -8.8125 C 4.101562 -8.925781 4.171875 -8.984375 4.265625 -8.984375 L 4.3125 -8.984375 C 4.363281 -8.984375 4.40625 -8.96875 4.4375 -8.9375 C 4.476562 -8.90625 4.507812 -8.863281 4.53125 -8.8125 Z M 2.171875 -2.140625 L 6.40625 -2.140625 L 4.296875 -7.234375 Z M 2.171875 -2.140625 "/></g></g></g><g fill="#471c57" fill-opacity="1"><g transform="translate(197.297456, 299.341298)"><g><path d="M 8.71875 -8.921875 C 8.820312 -8.921875 8.875 -8.867188 8.875 -8.765625 L 8.875 -0.125 C 8.875 -0.0625 8.859375 -0.015625 8.828125 0.015625 C 8.796875 0.0546875 8.753906 0.078125 8.703125 0.078125 C 8.648438 0.078125 8.601562 0.0625 8.5625 0.03125 C 8.53125 0.0078125 8.488281 -0.0234375 8.4375 -0.078125 L 2.234375 -6.828125 L 2.234375 -0.140625 C 2.234375 -0.0351562 2.1875 0.015625 2.09375 0.015625 L 1.40625 0.015625 C 1.300781 0.015625 1.25 -0.0351562 1.25 -0.140625 L 1.25 -8.796875 C 1.25 -8.847656 1.265625 -8.890625 1.296875 -8.921875 C 1.328125 -8.960938 1.367188 -8.984375 1.421875 -8.984375 L 1.4375 -8.984375 C 1.476562 -8.984375 1.515625 -8.96875 1.546875 -8.9375 C 1.585938 -8.90625 1.628906 -8.863281 1.671875 -8.8125 L 7.890625 -2.0625 L 7.890625 -8.765625 C 7.890625 -8.867188 7.941406 -8.921875 8.046875 -8.921875 Z M 8.71875 -8.921875 "/></g></g></g><g fill="#471c57" fill-opacity="1"><g transform="translate(210.332316, 299.341298)"><g><path d="M 8.25 -8.90625 C 8.332031 -8.90625 8.382812 -8.882812 8.40625 -8.84375 C 8.425781 -8.800781 8.425781 -8.742188 8.40625 -8.671875 L 4.609375 -0.0625 C 4.554688 0.0625 4.476562 0.125 4.375 0.125 L 4.359375 0.125 C 4.253906 0.125 4.175781 0.0625 4.125 -0.0625 L 0.328125 -8.6875 C 0.304688 -8.75 0.304688 -8.800781 0.328125 -8.84375 C 0.359375 -8.882812 0.40625 -8.90625 0.46875 -8.90625 L 1.15625 -8.90625 C 1.207031 -8.90625 1.25 -8.890625 1.28125 -8.859375 C 1.320312 -8.828125 1.351562 -8.789062 1.375 -8.75 L 4.375 -1.75 L 7.375 -8.75 C 7.414062 -8.851562 7.484375 -8.90625 7.578125 -8.90625 Z M 8.25 -8.90625 "/></g></g></g><g fill="#471c57" fill-opacity="1"><g transform="translate(221.972644, 299.341298)"><g><path d="M 8.28125 -0.21875 C 8.3125 -0.15625 8.3125 -0.0976562 8.28125 -0.046875 C 8.25 -0.00390625 8.195312 0.015625 8.125 0.015625 L 7.4375 0.015625 C 7.394531 0.015625 7.351562 0 7.3125 -0.03125 C 7.28125 -0.0625 7.257812 -0.0976562 7.25 -0.140625 L 6.765625 -1.28125 L 1.8125 -1.28125 L 1.34375 -0.140625 C 1.332031 -0.0976562 1.304688 -0.0625 1.265625 -0.03125 C 1.234375 0 1.195312 0.015625 1.15625 0.015625 L 0.46875 0.015625 C 0.394531 0.015625 0.34375 -0.00390625 0.3125 -0.046875 C 0.289062 -0.0859375 0.289062 -0.144531 0.3125 -0.21875 L 4.0625 -8.8125 C 4.101562 -8.925781 4.171875 -8.984375 4.265625 -8.984375 L 4.3125 -8.984375 C 4.363281 -8.984375 4.40625 -8.96875 4.4375 -8.9375 C 4.476562 -8.90625 4.507812 -8.863281 4.53125 -8.8125 Z M 2.171875 -2.140625 L 6.40625 -2.140625 L 4.296875 -7.234375 Z M 2.171875 -2.140625 "/></g></g></g><g fill="#471c57" fill-opacity="1"><g transform="translate(233.466489, 299.341298)"><g><path d="M 3.859375 0.125 C 3.554688 0.125 3.25 0.0859375 2.9375 0.015625 C 2.632812 -0.0546875 2.335938 -0.160156 2.046875 -0.296875 C 1.765625 -0.429688 1.507812 -0.585938 1.28125 -0.765625 C 1.050781 -0.953125 0.863281 -1.15625 0.71875 -1.375 C 0.6875 -1.414062 0.671875 -1.460938 0.671875 -1.515625 C 0.679688 -1.566406 0.707031 -1.613281 0.75 -1.65625 L 1.171875 -2.078125 C 1.253906 -2.140625 1.347656 -2.113281 1.453125 -2 C 1.628906 -1.78125 1.847656 -1.578125 2.109375 -1.390625 C 2.378906 -1.210938 2.660156 -1.070312 2.953125 -0.96875 C 3.253906 -0.875 3.546875 -0.828125 3.828125 -0.828125 C 4.484375 -0.828125 4.992188 -0.96875 5.359375 -1.25 C 5.722656 -1.53125 5.90625 -1.921875 5.90625 -2.421875 C 5.90625 -2.640625 5.847656 -2.832031 5.734375 -3 C 5.628906 -3.175781 5.472656 -3.328125 5.265625 -3.453125 C 5.066406 -3.585938 4.832031 -3.710938 4.5625 -3.828125 C 4.289062 -3.953125 4 -4.070312 3.6875 -4.1875 C 3.3125 -4.320312 2.960938 -4.46875 2.640625 -4.625 C 2.316406 -4.78125 2.035156 -4.953125 1.796875 -5.140625 C 1.554688 -5.335938 1.367188 -5.566406 1.234375 -5.828125 C 1.097656 -6.085938 1.03125 -6.390625 1.03125 -6.734375 C 1.03125 -7.179688 1.144531 -7.578125 1.375 -7.921875 C 1.613281 -8.265625 1.941406 -8.53125 2.359375 -8.71875 C 2.785156 -8.914062 3.285156 -9.015625 3.859375 -9.015625 C 4.191406 -9.015625 4.507812 -8.972656 4.8125 -8.890625 C 5.125 -8.804688 5.40625 -8.691406 5.65625 -8.546875 C 5.914062 -8.398438 6.128906 -8.226562 6.296875 -8.03125 C 6.378906 -7.914062 6.382812 -7.816406 6.3125 -7.734375 L 5.96875 -7.34375 C 5.914062 -7.28125 5.859375 -7.253906 5.796875 -7.265625 C 5.742188 -7.273438 5.6875 -7.304688 5.625 -7.359375 C 5.488281 -7.515625 5.320312 -7.644531 5.125 -7.75 C 4.925781 -7.851562 4.710938 -7.929688 4.484375 -7.984375 C 4.265625 -8.046875 4.046875 -8.078125 3.828125 -8.078125 C 3.441406 -8.078125 3.113281 -8.019531 2.84375 -7.90625 C 2.570312 -7.789062 2.363281 -7.628906 2.21875 -7.421875 C 2.070312 -7.222656 2 -6.988281 2 -6.71875 C 2 -6.488281 2.054688 -6.285156 2.171875 -6.109375 C 2.296875 -5.941406 2.457031 -5.789062 2.65625 -5.65625 C 2.851562 -5.519531 3.082031 -5.394531 3.34375 -5.28125 C 3.613281 -5.164062 3.890625 -5.054688 4.171875 -4.953125 C 4.515625 -4.835938 4.851562 -4.707031 5.1875 -4.5625 C 5.519531 -4.414062 5.816406 -4.242188 6.078125 -4.046875 C 6.335938 -3.859375 6.546875 -3.632812 6.703125 -3.375 C 6.859375 -3.113281 6.9375 -2.800781 6.9375 -2.4375 C 6.9375 -1.914062 6.804688 -1.460938 6.546875 -1.078125 C 6.296875 -0.691406 5.941406 -0.394531 5.484375 -0.1875 C 5.023438 0.0195312 4.484375 0.125 3.859375 0.125 Z M 3.859375 0.125 "/></g></g></g></svg>